<?xml version="1.0" encoding="UTF-8"?>
<svg id="Layer_1" data-name="Layer 1" xmlns="http://www.w3.org/2000/svg" viewBox="0 0 22 19.36">
  <defs>
    <style>
      .cls-1 {
        fill: #fff;
        stroke-width: 0px;
      }
    </style>
  </defs>
  <path class="cls-1" d="M21.99,9.66c0,.68-.57,1.21-1.22,1.21h-1.22l.03,6.06c0,.1,0,.2-.02.31v.61c0,.84-.68,1.51-1.53,1.51h-.61s-.08,0-.13,0c-.05,0-.11,0-.16,0h-2.16c-.84,0-1.53-.68-1.53-1.51v-3.33c0-.67-.55-1.21-1.22-1.21h-2.44c-.68,0-1.22.54-1.22,1.21v3.33c0,.84-.68,1.51-1.53,1.51h-2.14c-.06,0-.11,0-.17,0-.05,0-.09,0-.14,0h-.61c-.84,0-1.53-.68-1.53-1.51v-4.23s0-.07,0-.11v-2.63h-1.23c-.69,0-1.22-.53-1.22-1.21,0-.34.11-.64.38-.91L10.18.3c.27-.26.57-.3.84-.3s.57.08.8.26l9.76,8.49c.31.26.46.57.42.91Z"/>
</svg>