<?xml version="1.0" encoding="UTF-8"?>
<svg id="Layer_1" data-name="Layer 1" xmlns="http://www.w3.org/2000/svg" viewBox="0 0 25.14 22">
  <defs>
    <style>
      .cls-1 {
        fill: #fff;
        stroke-width: 0px;
      }
    </style>
  </defs>
  <path class="cls-1" d="M18.56,3.63l6.03,6.03c.35.35.56.84.56,1.34s-.2.99-.56,1.34l-6.03,6.03c-.31.31-.74.49-1.18.49-.92,0-1.66-.75-1.66-1.66v-3.05h-6.29c-.87,0-1.57-.7-1.57-1.57v-3.14c0-.87.7-1.57,1.57-1.57h6.29v-3.05c0-.92.75-1.66,1.66-1.66.44,0,.86.18,1.18.49ZM7.86,3.14h-3.14c-.87,0-1.57.7-1.57,1.57v12.57c0,.87.7,1.57,1.57,1.57h3.14c.87,0,1.57.7,1.57,1.57s-.7,1.57-1.57,1.57h-3.14c-2.6,0-4.71-2.11-4.71-4.71V4.71C0,2.11,2.11,0,4.71,0h3.14c.87,0,1.57.7,1.57,1.57s-.7,1.57-1.57,1.57Z"/>
</svg>