<?xml version="1.0" encoding="UTF-8"?>
<svg id="Layer_1" data-name="Layer 1" xmlns="http://www.w3.org/2000/svg" viewBox="0 0 22 30">
  <defs>
    <style>
      .cls-1 {
        fill: #101828;
        stroke-width: 0px;
      }
    </style>
  </defs>
  <path class="cls-1" d="M.8.13c.49-.23,1.06-.15,1.47.21l2.31,2.03L6.9.34c.52-.45,1.28-.45,1.79,0l2.31,2.03L13.31.34c.52-.45,1.28-.45,1.79,0l2.31,2.03,2.31-2.03c.41-.36.98-.44,1.47-.21.49.23.8.73.8,1.28v27.19c0,.55-.32,1.05-.8,1.28-.49.23-1.06.15-1.47-.21l-2.31-2.03-2.31,2.03c-.52.45-1.28.45-1.79,0l-2.31-2.03-2.31,2.03c-.52.45-1.28.45-1.79,0l-2.31-2.03-2.31,2.03c-.41.36-.98.44-1.47.21-.49-.23-.8-.73-.8-1.28V1.41C0,.85.32.36.8.13ZM5.5,8.44c-.5,0-.92.42-.92.94s.41.94.92.94h11c.5,0,.92-.42.92-.94s-.41-.94-.92-.94H5.5ZM4.58,20.63c0,.52.41.94.92.94h11c.5,0,.92-.42.92-.94s-.41-.94-.92-.94H5.5c-.5,0-.92.42-.92.94ZM5.5,14.06c-.5,0-.92.42-.92.94s.41.94.92.94h11c.5,0,.92-.42.92-.94s-.41-.94-.92-.94H5.5Z"/>
</svg>