<?xml version="1.0" encoding="UTF-8"?>
<svg id="Layer_1" data-name="Layer 1" xmlns="http://www.w3.org/2000/svg" viewBox="0 0 22 24.84">
  <defs>
    <style>
      .cls-1 {
        fill: #fff;
        stroke-width: 0px;
      }
    </style>
  </defs>
  <path class="cls-1" d="M6.29,0c.87,0,1.57.69,1.57,1.55v1.55h6.29v-1.55c0-.86.7-1.55,1.57-1.55s1.57.69,1.57,1.55v1.55h2.36c1.3,0,2.36,1.04,2.36,2.33v2.33H0v-2.33c0-1.28,1.06-2.33,2.36-2.33h2.36v-1.55c0-.86.7-1.55,1.57-1.55ZM0,9.32h22v13.19c0,1.29-1.06,2.33-2.36,2.33H2.36c-1.3,0-2.36-1.04-2.36-2.33v-13.19ZM3.14,13.2v1.55c0,.43.35.78.79.78h1.57c.43,0,.79-.35.79-.78v-1.55c0-.43-.35-.78-.79-.78h-1.57c-.43,0-.79.35-.79.78ZM9.43,13.2v1.55c0,.43.35.78.79.78h1.57c.43,0,.79-.35.79-.78v-1.55c0-.43-.35-.78-.79-.78h-1.57c-.43,0-.79.35-.79.78ZM16.5,12.42c-.43,0-.79.35-.79.78v1.55c0,.43.35.78.79.78h1.57c.43,0,.79-.35.79-.78v-1.55c0-.43-.35-.78-.79-.78h-1.57ZM3.14,19.4v1.55c0,.43.35.78.79.78h1.57c.43,0,.79-.35.79-.78v-1.55c0-.43-.35-.78-.79-.78h-1.57c-.43,0-.79.35-.79.78ZM10.21,18.63c-.43,0-.79.35-.79.78v1.55c0,.43.35.78.79.78h1.57c.43,0,.79-.35.79-.78v-1.55c0-.43-.35-.78-.79-.78h-1.57ZM15.71,19.4v1.55c0,.43.35.78.79.78h1.57c.43,0,.79-.35.79-.78v-1.55c0-.43-.35-.78-.79-.78h-1.57c-.43,0-.79.35-.79.78Z"/>
</svg>